<svg xmlns="http://www.w3.org/2000/svg" viewBox="0 0 64 64" fill="none">
  <defs>
    <linearGradient id="g" x1="0" y1="0" x2="0" y2="1">
      <stop offset="0%" stop-color="#3b82f6"/>
      <stop offset="100%" stop-color="#1e40af"/>
    </linearGradient>
  </defs>
  <!-- Shield shape -->
  <path d="M32 4 L56 16 V34 C56 48 44 58 32 62 C20 58 8 48 8 34 V16 Z" fill="url(#g)" stroke="#0f172a" stroke-width="1.5"/>
  <!-- Dog head silhouette -->
  <g transform="translate(16, 16) scale(0.5)">
    <path d="M32 8 C24 8 16 14 14 22 L8 18 L6 28 L14 30 C14 38 18 46 24 50 L24 56 L28 56 L28 48 L36 48 L36 56 L40 56 L40 50 C46 46 50 38 50 30 L58 28 L56 18 L50 22 C48 14 40 8 32 8Z" fill="#e2e8f0"/>
    <!-- Eyes -->
    <circle cx="24" cy="26" r="3" fill="#0f172a"/>
    <circle cx="40" cy="26" r="3" fill="#0f172a"/>
    <!-- Nose -->
    <ellipse cx="32" cy="34" rx="4" ry="3" fill="#334155"/>
  </g>
</svg>
